<svg width="673" height="234" viewBox="0 0 673 234" fill="none" xmlns="http://www.w3.org/2000/svg">
<path d="M240.739 118.727V206H217.386V137.477H187.898V206H164.545V118.727H240.739ZM248.698 118.727H272.392V164.409H273.073L304.096 118.727H324.21V206H300.517V160.148H300.005L268.471 206H248.698V118.727ZM328.217 206V118.727H351.91V152.818H383.274V118.727H406.967V206H383.274V171.909H351.91V206H328.217ZM416.301 118.727H439.142V146.17C439.142 148.898 439.611 151.128 440.548 152.861C441.514 154.594 443.119 155.872 445.364 156.696C447.637 157.52 450.733 157.932 454.654 157.932C455.364 157.932 456.514 157.918 458.105 157.889C459.725 157.832 461.472 157.761 463.347 157.676C465.222 157.562 466.94 157.435 468.503 157.293C470.094 157.122 471.216 156.937 471.869 156.739V174.636C471.131 174.892 469.909 175.119 468.205 175.318C466.5 175.489 464.668 175.645 462.708 175.787C460.776 175.901 459.043 176 457.509 176.085C455.975 176.142 455.023 176.17 454.654 176.17C446.983 176.17 440.264 175.077 434.497 172.889C428.73 170.702 424.256 167.392 421.074 162.96C417.892 158.528 416.301 152.932 416.301 146.17V118.727ZM467.438 118.727H490.449V206H467.438V118.727ZM584.105 162.364C584.105 172.08 582.216 180.276 578.437 186.952C574.659 193.599 569.559 198.642 563.139 202.08C556.718 205.489 549.559 207.193 541.662 207.193C533.707 207.193 526.52 205.474 520.099 202.037C513.707 198.571 508.622 193.514 504.843 186.866C501.093 180.19 499.218 172.023 499.218 162.364C499.218 152.648 501.093 144.466 504.843 137.818C508.622 131.142 513.707 126.099 520.099 122.69C526.52 119.253 533.707 117.534 541.662 117.534C549.559 117.534 556.718 119.253 563.139 122.69C569.559 126.099 574.659 131.142 578.437 137.818C582.216 144.466 584.105 152.648 584.105 162.364ZM559.73 162.364C559.73 157.136 559.034 152.733 557.642 149.153C556.278 145.545 554.247 142.818 551.548 140.972C548.878 139.097 545.582 138.159 541.662 138.159C537.741 138.159 534.432 139.097 531.733 140.972C529.062 142.818 527.031 145.545 525.639 149.153C524.275 152.733 523.593 157.136 523.593 162.364C523.593 167.591 524.275 172.009 525.639 175.616C527.031 179.196 529.062 181.923 531.733 183.798C534.432 185.645 537.741 186.568 541.662 186.568C545.582 186.568 548.878 185.645 551.548 183.798C554.247 181.923 556.278 179.196 557.642 175.616C559.034 172.009 559.73 167.591 559.73 162.364ZM587.867 206V118.727H611.56V152.818H642.924V118.727H666.617V206H642.924V171.909H611.56V206H587.867Z" fill="#151515"/>
<path d="M3.23864 47.8182V28.7273H79.0909V47.8182H52.8409V116H29.4886V47.8182H3.23864ZM161.252 72.3636C161.252 82.0795 159.363 90.2756 155.584 96.9517C151.806 103.599 146.706 108.642 140.286 112.08C133.865 115.489 126.706 117.193 118.809 117.193C110.854 117.193 103.666 115.474 97.246 112.037C90.854 108.571 85.7688 103.514 81.9903 96.8665C78.2403 90.1903 76.3653 82.0227 76.3653 72.3636C76.3653 62.6477 78.2403 54.4659 81.9903 47.8182C85.7688 41.142 90.854 36.0994 97.246 32.6903C103.666 29.2528 110.854 27.5341 118.809 27.5341C126.706 27.5341 133.865 29.2528 140.286 32.6903C146.706 36.0994 151.806 41.142 155.584 47.8182C159.363 54.4659 161.252 62.6477 161.252 72.3636ZM136.877 72.3636C136.877 67.1364 136.181 62.733 134.789 59.1534C133.425 55.5455 131.394 52.8182 128.695 50.9716C126.024 49.0966 122.729 48.1591 118.809 48.1591C114.888 48.1591 111.578 49.0966 108.88 50.9716C106.209 52.8182 104.178 55.5455 102.786 59.1534C101.422 62.733 100.74 67.1364 100.74 72.3636C100.74 77.5909 101.422 82.0085 102.786 85.6165C104.178 89.196 106.209 91.9233 108.88 93.7983C111.578 95.6449 114.888 96.5682 118.809 96.5682C122.729 96.5682 126.024 95.6449 128.695 93.7983C131.394 91.9233 133.425 89.196 134.789 85.6165C136.181 82.0085 136.877 77.5909 136.877 72.3636ZM165.014 28.7273H194.503L214.787 78.1591H215.81L236.094 28.7273H265.582V116H242.4V65.5455H241.719L222.287 115.318H208.31L188.878 65.2045H188.196V116H165.014V28.7273ZM292.281 116H266.713L295.52 28.7273H327.906L356.713 116H331.145L312.054 52.7614H311.372L292.281 116ZM287.509 81.5682H335.577V99.2955H287.509V81.5682ZM435.294 61.4545H411.26C411.09 59.4659 410.635 57.6619 409.897 56.0426C409.187 54.4233 408.192 53.0312 406.914 51.8665C405.664 50.6733 404.144 49.7642 402.354 49.1392C400.564 48.4858 398.533 48.1591 396.26 48.1591C392.283 48.1591 388.917 49.125 386.161 51.0568C383.434 52.9886 381.36 55.7585 379.939 59.3665C378.547 62.9744 377.851 67.3068 377.851 72.3636C377.851 77.7045 378.562 82.179 379.982 85.7869C381.431 89.3665 383.519 92.0653 386.246 93.8835C388.973 95.6733 392.255 96.5682 396.09 96.5682C398.277 96.5682 400.238 96.2983 401.971 95.7585C403.704 95.1903 405.209 94.3807 406.488 93.3295C407.766 92.2784 408.803 91.0142 409.598 89.5369C410.422 88.0312 410.976 86.3409 411.26 84.4659L435.294 84.6364C435.01 88.3295 433.973 92.0937 432.184 95.929C430.394 99.7358 427.851 103.259 424.556 106.497C421.289 109.707 417.24 112.293 412.411 114.253C407.581 116.213 401.971 117.193 395.579 117.193C387.567 117.193 380.38 115.474 374.016 112.037C367.681 108.599 362.667 103.543 358.973 96.8665C355.309 90.1903 353.476 82.0227 353.476 72.3636C353.476 62.6477 355.351 54.4659 359.101 47.8182C362.851 41.142 367.908 36.0994 374.272 32.6903C380.635 29.2528 387.738 27.5341 395.579 27.5341C401.09 27.5341 406.161 28.2869 410.792 29.7926C415.422 31.2983 419.485 33.5 422.979 36.3977C426.473 39.267 429.286 42.804 431.417 47.0085C433.547 51.2131 434.84 56.0284 435.294 61.4545Z" fill="#151515"/>
</svg>
