<svg width="24" height="24" viewBox="0 0 24 24" fill="none" xmlns="http://www.w3.org/2000/svg">
<g id="Icon">
<mask id="mask0_1536_1144" style="mask-type:alpha" maskUnits="userSpaceOnUse" x="0" y="0" width="24" height="24">
<rect id="Bounding box" width="24" height="24" fill="#D9D9D9"/>
</mask>
<g mask="url(#mask0_1536_1144)">
<path id="import_contacts" d="M6.5 16C7.28333 16 8.04583 16.0875 8.7875 16.2625C9.52917 16.4375 10.2667 16.7 11 17.05V7.2C10.3167 6.8 9.59167 6.5 8.825 6.3C8.05833 6.1 7.28333 6 6.5 6C5.9 6 5.30417 6.05833 4.7125 6.175C4.12083 6.29167 3.55 6.46667 3 6.7V16.6C3.58333 16.4 4.1625 16.25 4.7375 16.15C5.3125 16.05 5.9 16 6.5 16ZM13 17.05C13.7333 16.7 14.4708 16.4375 15.2125 16.2625C15.9542 16.0875 16.7167 16 17.5 16C18.1 16 18.6875 16.05 19.2625 16.15C19.8375 16.25 20.4167 16.4 21 16.6V6.7C20.45 6.46667 19.8792 6.29167 19.2875 6.175C18.6958 6.05833 18.1 6 17.5 6C16.7167 6 15.9417 6.1 15.175 6.3C14.4083 6.5 13.6833 6.8 13 7.2V17.05ZM12 20C11.2 19.3667 10.3333 18.875 9.4 18.525C8.46667 18.175 7.5 18 6.5 18C5.8 18 5.1125 18.0917 4.4375 18.275C3.7625 18.4583 3.11667 18.7167 2.5 19.05C2.15 19.2333 1.8125 19.225 1.4875 19.025C1.1625 18.825 1 18.5333 1 18.15V6.1C1 5.91667 1.04583 5.74167 1.1375 5.575C1.22917 5.40833 1.36667 5.28333 1.55 5.2C2.31667 4.8 3.11667 4.5 3.95 4.3C4.78333 4.1 5.63333 4 6.5 4C7.46667 4 8.4125 4.125 9.3375 4.375C10.2625 4.625 11.15 5 12 5.5C12.85 5 13.7375 4.625 14.6625 4.375C15.5875 4.125 16.5333 4 17.5 4C18.3667 4 19.2167 4.1 20.05 4.3C20.8833 4.5 21.6833 4.8 22.45 5.2C22.6333 5.28333 22.7708 5.40833 22.8625 5.575C22.9542 5.74167 23 5.91667 23 6.1V18.15C23 18.5333 22.8375 18.825 22.5125 19.025C22.1875 19.225 21.85 19.2333 21.5 19.05C20.8833 18.7167 20.2375 18.4583 19.5625 18.275C18.8875 18.0917 18.2 18 17.5 18C16.5 18 15.5333 18.175 14.6 18.525C13.6667 18.875 12.8 19.3667 12 20Z" fill="#1C1B1F"/>
</g>
</g>
</svg>
