<svg width="50" height="50" viewBox="0 0 50 50" fill="none" xmlns="http://www.w3.org/2000/svg">
<rect width="50" height="50" rx="25" fill="#842234"/>
<mask id="mask0_687_2074" style="mask-type:alpha" maskUnits="userSpaceOnUse" x="8" y="8" width="34" height="34">
<rect x="20.6074" y="8.60767" width="24" height="24" transform="rotate(30 20.6074 8.60767)" fill="#D9D9D9"/>
</mask>
<g mask="url(#mask0_687_2074)">
<path d="M19.5669 33.4102C18.2389 32.6436 17.3798 31.5317 16.9894 30.0746C16.5989 28.6175 16.787 27.225 17.5537 25.8971L22.8037 16.8038C23.3537 15.8512 24.1637 15.2315 25.2338 14.9448C26.3038 14.6581 27.3152 14.7897 28.2678 15.3397C29.2204 15.8897 29.8401 16.6997 30.1268 17.7698C30.4136 18.8399 30.2819 19.8512 29.7319 20.8038L24.9819 29.0311C24.6319 29.6373 24.1268 30.0288 23.4665 30.2058C22.8063 30.3827 22.1731 30.2961 21.5669 29.9461C20.9606 29.5961 20.5691 29.091 20.3922 28.4308C20.2152 27.7705 20.3018 27.1373 20.6518 26.5311L25.4018 18.3038L26.7008 19.0538L21.9508 27.2811C21.8092 27.5264 21.7734 27.78 21.8436 28.0419C21.9137 28.3037 22.0715 28.5054 22.3169 28.6471C22.5622 28.7888 22.8158 28.8245 23.0776 28.7544C23.3395 28.6842 23.5412 28.5264 23.6829 28.2811L28.4329 20.0538C28.7829 19.4476 28.8694 18.8144 28.6925 18.1541C28.5156 17.4939 28.124 16.9888 27.5178 16.6388C26.9116 16.2888 26.2784 16.2022 25.6181 16.3791C24.9579 16.556 24.4527 16.9476 24.1027 17.5538L18.8527 26.6471C18.3027 27.5997 18.1711 28.6111 18.4578 29.6811C18.7445 30.7512 19.3642 31.5612 20.3169 32.1112C21.2695 32.6612 22.2808 32.7928 23.3509 32.5061C24.4209 32.2194 25.231 31.5997 25.781 30.6471L31.031 21.5538L32.33 22.3038L27.08 31.3971C26.3133 32.725 25.2014 33.5842 23.7444 33.9746C22.2873 34.365 20.8948 34.1769 19.5669 33.4102Z" fill="#F8F6F3"/>
</g>
</svg>
