<svg width="916" height="179" viewBox="0 0 916 179" fill="none" xmlns="http://www.w3.org/2000/svg">
<path d="M241.614 109.091V90.0001H317.466V109.091H291.216V177.273H267.864V109.091H241.614Z" fill="#151515"/>
<path d="M391.285 177.273H367.592V108.921H359.24C356.484 108.921 354.112 109.304 352.123 110.071C350.134 110.81 348.6 111.975 347.521 113.565C346.47 115.128 345.944 117.159 345.944 119.659C345.944 122.131 346.47 124.134 347.521 125.668C348.6 127.202 350.134 128.324 352.123 129.034C354.112 129.716 356.484 130.057 359.24 130.057H376.967V148.466H354.467C347.847 148.466 342.038 147.372 337.038 145.185C332.038 142.997 328.146 139.759 325.362 135.469C322.606 131.179 321.228 125.909 321.228 119.659C321.228 113.466 322.578 108.153 325.276 103.722C327.975 99.2898 331.754 95.895 336.612 93.537C341.498 91.179 347.166 90.0001 353.615 90.0001H391.285V177.273ZM340.149 137.216H365.376L344.069 177.273H318.33L340.149 137.216Z" fill="#151515"/>
<path d="M456.667 90.0001V109.091H418.996V177.273H395.303V90.0001H456.667Z" fill="#151515"/>
<path d="M538.742 133.636C538.742 143.352 536.853 151.548 533.075 158.225C529.296 164.872 524.197 169.915 517.776 173.352C511.356 176.761 504.197 178.466 496.299 178.466C488.344 178.466 481.157 176.747 474.737 173.31C468.344 169.844 463.259 164.787 459.481 158.139C455.731 151.463 453.856 143.296 453.856 133.636C453.856 123.921 455.731 115.739 459.481 109.091C463.259 102.415 468.344 97.3722 474.737 93.9631C481.157 90.5256 488.344 88.8069 496.299 88.8069C504.197 88.8069 511.356 90.5256 517.776 93.9631C524.197 97.3722 529.296 102.415 533.075 109.091C536.853 115.739 538.742 123.921 538.742 133.636ZM514.367 133.636C514.367 128.409 513.671 124.006 512.279 120.426C510.915 116.818 508.884 114.091 506.185 112.244C503.515 110.369 500.219 109.432 496.299 109.432C492.379 109.432 489.069 110.369 486.37 112.244C483.7 114.091 481.668 116.818 480.276 120.426C478.913 124.006 478.231 128.409 478.231 133.636C478.231 138.864 478.913 143.281 480.276 146.889C481.668 150.469 483.7 153.196 486.37 155.071C489.069 156.918 492.379 157.841 496.299 157.841C500.219 157.841 503.515 156.918 506.185 155.071C508.884 153.196 510.915 150.469 512.279 146.889C513.671 143.281 514.367 138.864 514.367 133.636Z" fill="#151515"/>
<path d="M536.017 109.091V90.0001H611.869V109.091H585.619V177.273H562.267V109.091H536.017Z" fill="#151515"/>
<path d="M613.586 177.273V90.0001H676.484V109.091H637.279V124.091H673.245V143.182H637.279V158.182H676.313V177.273H613.586Z" fill="#151515"/>
<path d="M681.034 177.273V90.0001H704.727V124.091H736.091V90.0001H759.784V177.273H736.091V143.182H704.727V177.273H681.034Z" fill="#151515"/>
<path d="M763.834 90.0001H787.527V135.682H788.209L819.232 90.0001H839.346V177.273H815.652V131.421H815.141L783.607 177.273H763.834V90.0001Z" fill="#151515"/>
<path d="M915.455 177.273H891.762V108.921H883.41C880.654 108.921 878.282 109.304 876.293 110.071C874.305 110.81 872.771 111.975 871.691 113.565C870.64 115.128 870.114 117.159 870.114 119.659C870.114 122.131 870.64 124.134 871.691 125.668C872.771 127.202 874.305 128.324 876.293 129.034C878.282 129.716 880.654 130.057 883.41 130.057H901.137V148.466H878.637C872.018 148.466 866.208 147.372 861.208 145.185C856.208 142.997 852.316 139.759 849.532 135.469C846.776 131.179 845.398 125.909 845.398 119.659C845.398 113.466 846.748 108.153 849.447 103.722C852.146 99.2898 855.924 95.895 860.782 93.537C865.668 91.179 871.336 90.0001 877.785 90.0001H915.455V177.273ZM864.319 137.216H889.546L868.239 177.273H842.501L864.319 137.216Z" fill="#151515"/>
<path d="M0 87.2727V0H37.6705C44.1477 0 49.8153 1.27841 54.6733 3.83523C59.5313 6.39205 63.3097 9.9858 66.0085 14.6165C68.7074 19.2472 70.0568 24.6591 70.0568 30.8523C70.0568 37.1023 68.6648 42.5142 65.8807 47.0881C63.125 51.6619 59.2472 55.1847 54.2472 57.6562C49.2756 60.1278 43.4659 61.3636 36.8182 61.3636H14.3182V42.9545H32.0455C34.8295 42.9545 37.2017 42.4716 39.1619 41.5057C41.1506 40.5114 42.6705 39.1051 43.7216 37.2869C44.8011 35.4688 45.3409 33.3239 45.3409 30.8523C45.3409 28.3523 44.8011 26.2216 43.7216 24.4602C42.6705 22.6705 41.1506 21.3068 39.1619 20.3693C37.2017 19.4034 34.8295 18.9205 32.0455 18.9205H23.6932V87.2727H0Z" fill="#151515"/>
<path d="M83.322 87.2727H57.7538L86.5607 0H118.947L147.754 87.2727H122.186L103.095 24.0341H102.413L83.322 87.2727ZM78.5493 52.8409H126.617V70.5682H78.5493V52.8409Z" fill="#151515"/>
<path d="M146.062 109.273V69.0341H152.198C154.243 67.7841 156.09 66.0227 157.738 63.75C159.414 61.4773 160.834 58.2244 161.999 53.9915C163.192 49.7585 164.073 44.0909 164.641 36.9886L167.539 0H229.243V69.0341H238.448V109.273H215.607V87.2727H168.903V109.273H146.062ZM179.3 69.0341H206.403V19.0909H188.846L187.482 36.9886C187.084 42.3295 186.474 47.0028 185.65 51.0085C184.854 54.9858 183.903 58.4517 182.795 61.4062C181.715 64.3324 180.55 66.875 179.3 69.0341Z" fill="#151515"/>
<path d="M251.873 88.4659V70.0568H256.134C258.634 70.0568 260.609 69.858 262.058 69.4602C263.535 69.0341 264.671 68.2955 265.467 67.2443C266.291 66.1648 266.987 64.6591 267.555 62.7273L268.407 60.1705L235.68 0H259.884L278.123 35.4545L292.1 0H315.964L285.964 68.1818C284.316 71.7614 282.356 75.0994 280.083 78.196C277.81 81.2642 274.984 83.75 271.603 85.6534C268.222 87.5284 264.032 88.4659 259.032 88.4659H251.873Z" fill="#151515"/>
<path d="M377.798 0V19.0909H340.128V87.2727H316.434V0H377.798Z" fill="#151515"/>
<path d="M391.085 87.2727H365.516L394.323 0H426.71L455.516 87.2727H429.948L410.857 24.0341H410.175L391.085 87.2727ZM386.312 52.8409H434.38V70.5682H386.312V52.8409Z" fill="#151515"/>
</svg>
