<svg width="50" height="50" viewBox="0 0 50 50" fill="none" xmlns="http://www.w3.org/2000/svg">
<rect width="50" height="50" rx="25" fill="#842234"/>
<mask id="mask0_655_1442" style="mask-type:alpha" maskUnits="userSpaceOnUse" x="9" y="9" width="32" height="32">
<rect x="9" y="9" width="32" height="32" fill="#D9D9D9"/>
</mask>
<g mask="url(#mask0_655_1442)">
<path d="M35.2547 36.4223L26.6957 27.8633C26.0313 28.4381 25.2601 28.8832 24.3821 29.1987C23.5042 29.5141 22.5956 29.6719 21.6564 29.6719C19.3875 29.6719 17.4673 28.8865 15.8958 27.3158C14.3242 25.7451 13.5385 23.8358 13.5385 21.5877C13.5385 19.3396 14.3238 17.4295 15.8945 15.8574C17.4652 14.2853 19.3762 13.4993 21.6276 13.4993C23.8789 13.4993 25.7904 14.2848 27.3621 15.8559C28.9338 17.427 29.7196 19.337 29.7196 21.5858C29.7196 22.5258 29.5598 23.4351 29.2401 24.3138C28.9204 25.1924 28.47 25.9779 27.8888 26.6702L36.4615 35.2069L35.2547 36.4223ZM21.6427 27.9967C23.4295 27.9967 24.9431 27.3749 26.1837 26.1313C27.4242 24.8877 28.0444 23.3725 28.0444 21.5856C28.0444 19.7987 27.4242 18.2834 26.1837 17.0398C24.9431 15.7962 23.4295 15.1744 21.6427 15.1744C19.8483 15.1744 18.3282 15.7962 17.0824 17.0398C15.8365 18.2834 15.2136 19.7987 15.2136 21.5856C15.2136 23.3725 15.8365 24.8877 17.0824 26.1313C18.3282 27.3749 19.8483 27.9967 21.6427 27.9967Z" fill="#F3F0EA"/>
</g>
</svg>
